/* XPM */
static char * auto_step_xpm[] = {
"22 20 5 1",
" 	c None",
".	c #7F7F7F",
"+	c #FFFFFF",
"@	c #00007F",
"#	c #000000",
"                      ",
"                      ",
"                      ",
"   ...........        ",
"   .+++++++++. @@@    ",
"   .+++++++++.    @   ",
"   .+###+++++.    @   ",
"   .+++++++++.    @   ",
"   .++######+. @@@    ",
"   .+++++++++.    @   ",
"   .++######+.    @   ",
"   .+++++++++.    @   ",
"   .+++####++. @@@    ",
"   .+++++++++.  @     ",
"   .++######+.  @     ",
"   .+++++++++.@@@@@   ",
"   .+++++++++. @@@    ",
"   ...........  @     ",
"                      ",
"                      "};
