/* XPM */
static char * current_xpm[] = {
"14 15 2 1",
" 	c None",
".	c #006400",
"     ..       ",
"    ....      ",
"   ......     ",
"    ......    ",
"     ......   ",
"............  ",
"............. ",
"..............",
"............. ",
"............  ",
"     ......   ",
"    ......    ",
"   ......     ",
"    ....      ",
"     ..       "};
