/* XPM */
static char * load_xpm[] = {
"22 20 4 1",
" 	c None",
".	c #000000",
"+	c #FFFF00",
"@	c #7F7F00",
"                      ",
"                      ",
"                      ",
"                      ",
"             ...      ",
"            .   . .   ",
"                 ..   ",
"     ...        ...   ",
"    . + .......       ",
"    .+ + + + +.       ",
"    . + + + + .       ",
"    .+ + ..........   ",
"    . + .@@@@@@@@@.   ",
"    .+ .@@@@@@@@@.    ",
"    . .@@@@@@@@@.     ",
"    ..@@@@@@@@@.      ",
"    ...........       ",
"                      ",
"                      ",
"                      "};
