/* XPM */
static char * reload_xpm[] = {
"22 20 4 1",
" 	c None",
".	c #008000",
"+	c #000000",
"@	c #00FF00",
"                      ",
"                      ",
"                      ",
"           .....+     ",
"           .@@@@+     ",
"      ..   .@@@+      ",
"     .@@+  .@@@@+     ",
"     .@@+  .@+@@+     ",
"    .@@+   ++ .@@+    ",
"    .@@+      .@@+    ",
"    .@@+      .@@+    ",
"    .@@+      .@@+    ",
"     .@@.    .@@+     ",
"     .@@@....@@@+     ",
"      +@@@@@@@@+      ",
"       ++@@@@++       ",
"         ++++         ",
"                      ",
"                      ",
"                      "};
