/* XPM */
static char * step_over_xpm[] = {
"22 20 4 1",
" 	c None",
".	c #7F7F7F",
"+	c #00007F",
"@	c #000000",
"                      ",
"                      ",
"                      ",
"    .++++++++++.      ",
"    +          +.     ",
"                +     ",
"       @@ @@    +     ",
"      @@   @@   +     ",
"      @@   @@   +     ",
"      @@   @@ +++++   ",
"      @@   @@  +++    ",
"     @@     @@  +     ",
"      @@   @@         ",
"      @@   @@         ",
"      @@   @@         ",
"      @@   @@         ",
"       @@ @@          ",
"                      ",
"                      ",
"                      "};
