/* XPM */
static char * stop_xpm[] = {
"22 20 6 1",
" 	c None",
".	c #7F7F7F",
"+	c #7F0000",
"@	c #FFFFFF",
"#	c #000000",
"$	c #00007F",
"                      ",
"                      ",
"                      ",
"   ...........  ++.   ",
"   .@@@@@@@@@..++.    ",
"   .@@@@@++@@.++..    ",
"   .@###@..++++.$     ",
"   .@@@@@@@.+++.$     ",
"   .@@#####+++++$     ",
"   .@@@@@@.++..++     ",
"   .@@####++.. ++.    ",
"   .@@@@@.++..  $+.   ",
"   .@@@##++...  $+.   ",
"   .@@@@@+..@.  $     ",
"   .@@######@.$$$$$   ",
"   .@@@@@@@@@. $$$    ",
"   .@@@@@@@@@.  $     ",
"   ...........        ",
"                      ",
"                      "};
