/* XPM */
static char * trace_into_xpm[] = {
"22 20 4 1",
" 	c None",
".	c #00007F",
"+	c #7F7F7F",
"@	c #000000",
"                      ",
"                      ",
"                      ",
"    .......+          ",
"           .+         ",
"            .         ",
"        @@  .  @@     ",
"       @@   .   @@    ",
"       @@   .   @@    ",
"       @@ ..... @@    ",
"       @@  ...  @@    ",
"      @@    .    @@   ",
"       @@       @@    ",
"       @@       @@    ",
"       @@       @@    ",
"       @@       @@    ",
"        @@     @@     ",
"                      ",
"                      ",
"                      "};
